Coordinates
version=1
nRows=5
nColumns=63
inDegrees=yes

Units are S.I. units (second, meters, Newtons, ...)
If the header above contains a line with 'inDegrees', this indicates whether rotational values are in degrees (yes) or radians (no).

endheader
time	pelvis_tilt	pelvis_list	pelvis_rotation	pelvis_tx	pelvis_ty	pelvis_tz	hip_flexion_r	hip_adduction_r	hip_rotation_r	knee_angle_r	knee_angle_r_beta	ankle_angle_r	subtalar_angle_r	mtp_angle_r	hip_flexion_l	hip_adduction_l	hip_rotation_l	knee_angle_l	knee_angle_l_beta	ankle_angle_l	subtalar_angle_l	mtp_angle_l	L5_S1_Flex_Ext	L5_S1_Lat_Bending	L5_S1_axial_rotation	L4_L5_Flex_Ext	L4_L5_Lat_Bending	L4_L5_axial_rotation	L3_L4_Flex_Ext	L3_L4_Lat_Bending	L3_L4_axial_rotation	L2_L3_Flex_Ext	L2_L3_Lat_Bending	L2_L3_axial_rotation	L1_L2_Flex_Ext	L1_L2_Lat_Bending	L1_L2_axial_rotation	L1_T12_Flex_Ext	L1_T12_Lat_Bending	L1_T12_axial_rotation	Abs_r3	Abs_r2	Abs_r1	Abs_t1	Abs_t2	neck_flexion	neck_bending	neck_rotation	arm_flex_r	arm_add_r	arm_rot_r	elbow_flex_r	pro_sup_r	wrist_flex_r	wrist_dev_r	arm_flex_l	arm_add_l	arm_rot_l	elbow_flex_l	pro_sup_l	wrist_flex_l	wrist_dev_l
      0.00000000	     -2.88977058	     -5.54974254	     97.32828415	      0.13966778	      0.90486271	      0.68530235	      0.74057511	     -4.29582353	    -20.50174208	     10.58471550	      0.18473814	     28.23247067	     18.35359538	      0.00000000	      4.04349268	      2.83943182	     14.47522482	     13.29237655	      0.23199574	     23.12685814	    -11.94039659	      0.00000000	      0.09120965	     -0.16125562	      0.09753553	      0.16938544	     -0.21446997	      0.10363150	      0.14984833	     -0.39207691	      0.10363150	      0.10424351	     -0.39207691	      0.08534359	      0.08469728	     -0.32883246	      0.07924762	      0.05211719	     -0.24978495	      0.07315165	      0.65150139	     -1.82415580	      0.54246336	      0.00000000	      0.00000000	     26.32789238	      5.84624253	     -2.54461522	      9.10643213	    -12.02603291	     45.64842650	     46.91884782	     16.85310678	     -7.00084035	     10.87901295	     14.73283258	     -8.31362977	     46.49890044	     50.68972108	     87.89236407	     -2.06788625	      4.30344323
      0.01694915	     -2.56925753	     -6.04100400	     96.11805166	      0.14057795	      0.90440585	      0.68745150	      1.80557189	     -4.05730288	    -19.36484563	     10.78151579	      0.18817295	     28.72747809	     18.52946915	      0.00000000	      4.89374275	      2.49264875	     12.00623769	     13.59409585	      0.23726173	     24.45375811	     -9.90397950	      0.00000000	      0.12133566	     -0.12990654	      0.61826622	      0.22533245	     -0.17277570	      0.65690786	      0.19934235	     -0.31585477	      0.65690786	      0.13867452	     -0.31585477	      0.54098295	      0.11267229	     -0.26490542	      0.50234131	      0.06933120	     -0.20122523	      0.46369967	      0.86668848	     -1.46952878	      3.43861126	      0.00000000	      0.00000000	     26.74161467	      4.83795622	     -4.66704399	      6.85836205	    -11.34455675	     38.55274214	     47.77532535	     18.15565705	    -10.88647522	     13.26270031	     18.29041011	     -6.94195016	     53.45594385	     46.66448320	     87.91794515	     -0.08432802	      3.24460724
      0.03389831	     -2.36216007	     -6.38103620	     95.41072283	      0.14137574	      0.90396125	      0.68944676	      2.56100687	     -3.88493521	    -18.89448848	     11.03120077	      0.19253077	     29.02555793	     18.64066714	      0.00000000	      5.61612631	      2.28073634	     10.58877350	     14.11180775	      0.24629751	     25.32785124	     -9.01760720	      0.00000000	      0.14240092	     -0.11242318	      0.84026097	      0.26445275	     -0.14952283	      0.89277728	      0.23395047	     -0.27334573	      0.89277728	      0.16275001	     -0.27334573	      0.73522835	      0.13223349	     -0.22925336	      0.68271204	      0.08136789	     -0.17414351	      0.63019573	      1.01715553	     -1.27175354	      4.67327944	      0.00000000	      0.00000000	     26.92399522	      5.09756826	     -4.87538450	      6.56331071	    -10.85116899	     36.27701426	     47.55190585	     18.56259413	    -13.13423351	     14.60419820	     20.77818482	     -5.95471797	     58.18047476	     44.01667852	     88.00080777	      2.04264491	      3.68024325
      0.05084746	     -2.31441595	     -6.62585629	     94.48696366	      0.14289906	      0.90375205	      0.69106647	      3.17581792	     -3.81986176	    -18.09295488	     11.29563226	      0.19714597	     28.96104957	     18.63844601	      0.00000000	      6.13429872	      1.90653458	      7.02434377	     14.49510871	      0.25298737	     26.37479314	     -5.50289433	      0.00000000	      0.15382757	     -0.12161797	      1.10066681	      0.28567318	     -0.16175190	      1.16945849	      0.25272332	     -0.29570194	      1.16945849	      0.17580953	     -0.29570194	      0.96308346	      0.14284428	     -0.24800337	      0.89429178	      0.08789707	     -0.18838624	      0.82550011	      1.09877497	     -1.37576682	      6.12157861	      0.00000000	      0.00000000	     27.04326095	      4.44097911	     -6.37594902	      6.06222169	     -9.69408987	     32.75086829	     47.43866965	     19.42598702	    -17.03584943	     16.23318992	     22.70222734	     -4.94501447	     62.25255756	     41.59716264	     87.58006715	      2.45521605	      3.05852613
      0.06779661	     -2.31109124	     -6.70088223	     93.94738250	      0.14408699	      0.90373700	      0.69250609	      3.49449030	     -3.78885877	    -17.74312187	     11.53859572	      0.20138649	     28.83109490	     18.67260727	      0.00000000	      6.42505288	      1.67984541	      4.87505114	     14.85561256	      0.25927935	     26.80248539	     -3.65447034	      0.00000000	      0.14838663	     -0.13230026	      1.15030985	      0.27556880	     -0.17595934	      1.22220421	      0.24378439	     -0.32167484	      1.22220421	      0.16959107	     -0.32167484	      1.00652112	      0.13779182	     -0.26978668	      0.93462675	      0.08478812	     -0.20493310	      0.86273239	      1.05991083	     -1.49660696	      6.39767828	      0.00000000	      0.00000000	     27.01760803	      4.72629083	     -6.39958578	      6.85483525	     -9.08208809	     33.17586050	     46.75787779	     17.48801207	    -20.07378107	     16.27668148	     23.71106222	     -4.47272577	     63.91995465	     40.37637647	     87.39084435	      2.89651682	      3.89760053
